<svg xmlns="http://www.w3.org/2000/svg" xmlns:xlink="http://www.w3.org/1999/xlink" width="64" zoomAndPan="magnify" viewBox="0 0 48 48" height="64" preserveAspectRatio="xMidYMid meet" version="1.0"><defs><clipPath id="927cb6c9f4"><path d="M 1 0 L 47 0 L 47 47.019531 L 1 47.019531 Z M 1 0 " clip-rule="nonzero"/></clipPath><clipPath id="90f54be0e4"><path d="M 2 0.84375 L 45.855469 0.84375 L 45.855469 45.953125 L 2 45.953125 Z M 2 0.84375 " clip-rule="nonzero"/></clipPath><clipPath id="b34b2544fe"><path d="M 46.304688 15 L 46.65625 15 L 46.65625 28 L 46.304688 28 Z M 46.304688 15 " clip-rule="nonzero"/></clipPath></defs><g clip-path="url(#927cb6c9f4)"><path fill="#ffffff" d="M 40.242188 41.019531 C 39.9375 40.441406 39.464844 39.757812 38.824219 39.117188 C 38.8125 39.105469 38.804688 39.097656 38.796875 39.085938 C 38.75 39.042969 38.703125 38.996094 38.65625 38.953125 C 37.886719 38.207031 36.84375 37.476562 35.503906 37.136719 C 34.820312 36.960938 34.109375 36.917969 33.386719 36.972656 C 33.34375 36.976562 33.308594 36.972656 33.269531 36.976562 C 33.007812 35.839844 32.648438 34.628906 32.222656 33.375 C 33.800781 31.558594 35.335938 29.628906 36.757812 27.648438 C 44.308594 17.152344 49.761719 4.144531 44.992188 0.714844 C 42.851562 -0.824219 39.339844 0.132812 34.84375 3.492188 C 30.996094 6.363281 26.835938 10.71875 23.011719 15.832031 C 23.011719 15.828125 23.007812 15.824219 23.003906 15.820312 C 22.746094 15.449219 22.480469 15.082031 22.210938 14.714844 C 19.511719 11.007812 16.675781 7.792969 13.953125 5.375 L 13.65625 5.113281 L 13.621094 5.117188 C 9.566406 1.59375 5.738281 -0.179688 3.265625 1.386719 C 1.035156 2.796875 0.617188 6.410156 2.054688 11.835938 C 2.101562 12.007812 2.160156 12.1875 2.207031 12.359375 L 2.199219 12.375 L 2.3125 12.753906 C 2.375 12.96875 2.449219 13.195312 2.519531 13.414062 C 2.574219 13.597656 2.632812 13.785156 2.695312 13.976562 C 2.875 14.523438 3.066406 15.082031 3.273438 15.648438 C 3.324219 15.777344 3.375 15.910156 3.425781 16.039062 C 3.613281 16.542969 3.816406 17.054688 4.03125 17.570312 C 4.132812 17.820312 4.242188 18.070312 4.347656 18.320312 C 4.511719 18.703125 4.683594 19.089844 4.859375 19.476562 C 4.984375 19.746094 5.101562 20.011719 5.230469 20.28125 C 5.4375 20.726562 5.65625 21.171875 5.878906 21.621094 C 6.042969 21.949219 6.210938 22.277344 6.378906 22.609375 C 6.625 23.085938 6.875 23.558594 7.132812 24.039062 C 7.285156 24.316406 7.441406 24.59375 7.597656 24.875 C 7.714844 25.082031 7.824219 25.292969 7.945312 25.5 L 8.78125 26.964844 L 8.792969 26.941406 C 9.15625 27.546875 9.523438 28.152344 9.90625 28.757812 C 10.960938 30.421875 12.074219 32.039062 13.21875 33.578125 C 11.625 38.402344 11.515625 42.355469 13.839844 44.023438 C 14.527344 44.519531 15.335938 44.75 16.238281 44.75 C 17.792969 44.75 19.628906 44.050781 21.609375 42.863281 C 24.792969 45.59375 27.585938 47.019531 29.734375 47.019531 C 30.515625 47.019531 31.21875 46.832031 31.820312 46.449219 C 33.074219 45.652344 33.753906 44.152344 33.84375 41.984375 C 33.867188 41.976562 33.886719 41.964844 33.90625 41.957031 C 33.953125 41.941406 34 41.929688 34.046875 41.914062 C 34.1875 41.867188 34.332031 41.832031 34.46875 41.796875 C 34.566406 41.773438 34.660156 41.753906 34.753906 41.734375 C 34.824219 41.722656 34.894531 41.714844 34.960938 41.703125 C 37.1875 41.375 39.039062 42.367188 39.082031 42.390625 C 39.125 42.414062 39.171875 42.421875 39.214844 42.4375 C 39.441406 42.523438 39.6875 42.519531 39.902344 42.421875 C 39.914062 42.417969 39.925781 42.40625 39.9375 42.398438 C 40.011719 42.359375 40.082031 42.320312 40.140625 42.261719 C 40.429688 41.992188 40.511719 41.566406 40.339844 41.210938 C 40.335938 41.195312 40.300781 41.125 40.242188 41.019531 Z M 3.519531 10.1875 C 2.6875 6.417969 2.9375 3.734375 4.234375 2.914062 C 4.554688 2.710938 4.949219 2.609375 5.40625 2.609375 C 6.800781 2.609375 8.796875 3.546875 11.144531 5.367188 L 6.113281 5.878906 Z M 8.691406 23.117188 C 8.417969 22.613281 8.152344 22.113281 7.898438 21.613281 C 7.773438 21.371094 7.65625 21.132812 7.535156 20.894531 C 7.339844 20.5 7.148438 20.105469 6.964844 19.714844 C 6.859375 19.5 6.753906 19.28125 6.65625 19.066406 C 6.40625 18.527344 6.171875 17.992188 5.945312 17.460938 C 5.855469 17.25 5.769531 17.039062 5.683594 16.828125 C 5.496094 16.375 5.316406 15.921875 5.148438 15.476562 C 5.097656 15.351562 5.046875 15.222656 5 15.097656 C 4.796875 14.550781 4.609375 14.007812 4.4375 13.476562 C 4.382812 13.320312 4.335938 13.164062 4.285156 13.011719 C 4.242188 12.875 4.207031 12.746094 4.167969 12.609375 L 7.195312 7.585938 L 13.046875 6.992188 C 15.535156 9.25 18.121094 12.1875 20.601562 15.570312 L 12.382812 15.769531 Z M 11.433594 27.789062 C 10.847656 26.867188 10.296875 25.941406 9.761719 25.015625 L 13.507812 17.554688 L 21.867188 17.347656 C 21.871094 17.355469 21.875 17.359375 21.878906 17.363281 C 21.835938 17.421875 21.796875 17.484375 21.757812 17.542969 C 21.410156 18.03125 21.070312 18.519531 20.734375 19.019531 C 20.613281 19.199219 20.492188 19.378906 20.371094 19.558594 C 20.171875 19.859375 19.972656 20.164062 19.777344 20.46875 C 19.457031 20.964844 19.144531 21.460938 18.839844 21.957031 C 18.792969 22.035156 18.742188 22.117188 18.695312 22.195312 C 17.695312 23.835938 16.789062 25.460938 15.988281 27.050781 C 15.890625 27.238281 15.800781 27.425781 15.707031 27.613281 C 15.585938 27.855469 15.464844 28.101562 15.351562 28.34375 C 15.121094 28.820312 14.90625 29.296875 14.699219 29.769531 C 14.675781 29.824219 14.652344 29.878906 14.628906 29.929688 C 14.390625 30.472656 14.167969 31.011719 13.960938 31.539062 C 13.09375 30.328125 12.246094 29.070312 11.433594 27.789062 Z M 22.621094 40 C 22.398438 40.164062 22.175781 40.316406 21.957031 40.46875 C 21.75 40.609375 21.542969 40.753906 21.339844 40.886719 C 18.402344 42.785156 16.078125 43.40625 14.898438 42.558594 C 13.445312 41.511719 13.554688 38.125 15.191406 33.445312 C 15.351562 32.988281 15.523438 32.527344 15.707031 32.054688 C 15.773438 31.890625 15.84375 31.722656 15.914062 31.558594 C 16.09375 31.117188 16.277344 30.671875 16.476562 30.222656 C 16.5625 30.03125 16.65625 29.835938 16.742188 29.644531 C 16.945312 29.203125 17.152344 28.761719 17.375 28.3125 C 17.472656 28.109375 17.582031 27.902344 17.683594 27.699219 C 17.914062 27.25 18.144531 26.796875 18.390625 26.339844 C 18.503906 26.128906 18.628906 25.914062 18.746094 25.699219 C 19 25.246094 19.253906 24.789062 19.519531 24.332031 C 19.660156 24.089844 19.8125 23.84375 19.960938 23.597656 C 20.222656 23.167969 20.480469 22.734375 20.75 22.300781 C 20.957031 21.972656 21.179688 21.640625 21.394531 21.308594 C 21.625 20.953125 21.851562 20.597656 22.089844 20.242188 C 22.554688 19.550781 23.039062 18.851562 23.546875 18.148438 C 27.511719 12.632812 31.910156 7.941406 35.925781 4.941406 C 38.65625 2.902344 41.023438 1.816406 42.617188 1.816406 C 43.144531 1.816406 43.59375 1.9375 43.9375 2.183594 C 46.714844 4.179688 43.847656 14.695312 35.289062 26.59375 C 33.707031 28.792969 32.109375 30.789062 30.535156 32.578125 C 30.535156 32.578125 30.53125 32.582031 30.53125 32.582031 C 30.351562 32.785156 30.175781 32.972656 30 33.167969 C 29.710938 33.488281 29.425781 33.804688 29.136719 34.109375 C 28.925781 34.335938 28.714844 34.554688 28.503906 34.773438 C 28.226562 35.0625 27.949219 35.34375 27.675781 35.613281 C 27.492188 35.796875 27.308594 35.980469 27.128906 36.15625 C 26.75 36.523438 26.378906 36.871094 26.011719 37.207031 C 25.933594 37.28125 25.851562 37.359375 25.773438 37.429688 C 25.320312 37.839844 24.871094 38.222656 24.433594 38.589844 C 24.304688 38.695312 24.175781 38.796875 24.050781 38.898438 C 23.746094 39.144531 23.449219 39.378906 23.15625 39.605469 C 22.976562 39.742188 22.796875 39.871094 22.621094 40 Z M 30.851562 44.921875 C 29.445312 45.8125 26.5625 44.632812 23.1875 41.839844 C 24.246094 41.097656 25.328125 40.230469 26.425781 39.265625 C 26.726562 39 27.03125 38.726562 27.339844 38.445312 C 27.40625 38.382812 27.472656 38.320312 27.539062 38.257812 C 28.628906 37.246094 29.730469 36.140625 30.839844 34.9375 C 31.101562 35.785156 31.308594 36.585938 31.488281 37.367188 C 30.402344 37.730469 29.285156 38.316406 28.140625 39.152344 C 27.761719 39.429688 27.65625 39.953125 27.902344 40.351562 L 29.835938 43.539062 C 29.980469 43.78125 30.230469 43.9375 30.507812 43.96875 C 30.542969 43.972656 30.574219 43.976562 30.609375 43.976562 C 30.855469 43.976562 31.085938 43.875 31.261719 43.699219 C 31.46875 43.480469 31.679688 43.289062 31.890625 43.113281 C 31.730469 43.871094 31.425781 44.558594 30.851562 44.921875 Z M 36.734375 39.867188 C 36.621094 39.855469 36.503906 39.84375 36.386719 39.835938 C 36.320312 39.832031 36.257812 39.832031 36.191406 39.828125 C 35.09375 39.789062 33.847656 39.953125 32.570312 40.546875 C 32.539062 40.5625 32.515625 40.582031 32.488281 40.601562 C 31.921875 40.871094 31.359375 41.214844 30.8125 41.660156 L 29.890625 40.144531 C 30.917969 39.484375 31.898438 39.066406 32.824219 38.875 C 33.019531 38.832031 33.214844 38.804688 33.398438 38.785156 C 33.433594 38.78125 33.464844 38.78125 33.5 38.777344 C 33.6875 38.761719 33.871094 38.753906 34.046875 38.761719 C 34.066406 38.761719 34.085938 38.761719 34.101562 38.761719 C 34.292969 38.769531 34.476562 38.789062 34.652344 38.816406 C 34.660156 38.816406 34.664062 38.816406 34.671875 38.820312 C 34.859375 38.847656 35.039062 38.890625 35.210938 38.9375 C 35.210938 38.9375 35.210938 38.941406 35.210938 38.941406 C 35.386719 38.988281 35.554688 39.050781 35.714844 39.117188 C 35.726562 39.121094 35.742188 39.128906 35.757812 39.136719 C 35.898438 39.195312 36.035156 39.261719 36.167969 39.332031 C 36.265625 39.386719 36.359375 39.445312 36.453125 39.503906 C 36.496094 39.53125 36.539062 39.554688 36.578125 39.582031 C 36.722656 39.679688 36.859375 39.78125 36.988281 39.882812 C 36.90625 39.875 36.816406 39.871094 36.734375 39.867188 Z M 36.734375 39.867188 " fill-opacity="1" fill-rule="nonzero"/></g><g clip-path="url(#90f54be0e4)"><path fill="#2596be" d="M 39.539062 40.195312 C 39.25 39.640625 38.792969 38.988281 38.179688 38.371094 C 38.171875 38.359375 38.160156 38.351562 38.152344 38.339844 C 38.109375 38.296875 38.0625 38.253906 38.019531 38.210938 C 37.277344 37.496094 36.28125 36.796875 34.996094 36.472656 C 34.335938 36.304688 33.65625 36.261719 32.960938 36.3125 C 32.925781 36.316406 32.886719 36.316406 32.847656 36.320312 C 32.597656 35.226562 32.253906 34.0625 31.847656 32.859375 C 33.363281 31.117188 34.832031 29.265625 36.199219 27.367188 C 43.441406 17.296875 48.671875 4.816406 44.097656 1.527344 C 42.042969 0.0507812 38.675781 0.96875 34.363281 4.191406 C 30.671875 6.949219 26.679688 11.125 23.011719 16.027344 C 23.007812 16.023438 23.007812 16.023438 23.003906 16.019531 C 22.753906 15.664062 22.5 15.308594 22.242188 14.960938 C 19.652344 11.402344 16.929688 8.320312 14.320312 6 L 14.035156 5.746094 L 14 5.75 C 10.109375 2.371094 6.4375 0.667969 4.066406 2.171875 C 1.925781 3.527344 1.527344 6.996094 2.90625 12.199219 C 2.949219 12.359375 3.003906 12.535156 3.050781 12.699219 L 3.042969 12.710938 L 3.152344 13.078125 C 3.210938 13.285156 3.285156 13.5 3.347656 13.707031 C 3.40625 13.890625 3.457031 14.066406 3.519531 14.25 C 3.691406 14.777344 3.875 15.3125 4.074219 15.855469 C 4.121094 15.980469 4.171875 16.105469 4.21875 16.230469 C 4.402344 16.714844 4.59375 17.203125 4.800781 17.699219 C 4.898438 17.9375 5.003906 18.175781 5.105469 18.417969 C 5.261719 18.785156 5.425781 19.152344 5.597656 19.527344 C 5.714844 19.785156 5.828125 20.042969 5.949219 20.300781 C 6.152344 20.726562 6.359375 21.152344 6.574219 21.585938 C 6.730469 21.902344 6.890625 22.21875 7.054688 22.535156 C 7.289062 22.988281 7.527344 23.445312 7.777344 23.902344 C 7.921875 24.171875 8.070312 24.4375 8.21875 24.703125 C 8.332031 24.90625 8.441406 25.105469 8.554688 25.308594 L 9.355469 26.714844 L 9.371094 26.691406 C 9.71875 27.269531 10.070312 27.851562 10.433594 28.429688 C 11.449219 30.027344 12.515625 31.578125 13.613281 33.058594 C 12.085938 37.6875 11.984375 41.476562 14.210938 43.078125 C 14.871094 43.550781 15.644531 43.773438 16.511719 43.773438 C 18 43.773438 19.765625 43.101562 21.664062 41.964844 C 24.71875 44.582031 27.398438 45.953125 29.457031 45.953125 C 30.210938 45.949219 30.882812 45.769531 31.460938 45.40625 C 32.664062 44.640625 33.316406 43.199219 33.402344 41.117188 C 33.421875 41.113281 33.445312 41.101562 33.464844 41.09375 C 33.507812 41.078125 33.550781 41.066406 33.597656 41.054688 C 33.734375 41.011719 33.867188 40.972656 34.003906 40.941406 C 34.09375 40.917969 34.1875 40.898438 34.277344 40.882812 C 34.34375 40.871094 34.410156 40.859375 34.472656 40.851562 C 36.613281 40.535156 38.386719 41.488281 38.429688 41.511719 C 38.46875 41.535156 38.511719 41.542969 38.558594 41.554688 C 38.773438 41.636719 39.007812 41.636719 39.214844 41.539062 C 39.226562 41.535156 39.238281 41.523438 39.25 41.519531 C 39.316406 41.484375 39.386719 41.441406 39.445312 41.386719 C 39.71875 41.128906 39.796875 40.71875 39.636719 40.378906 C 39.628906 40.363281 39.59375 40.296875 39.539062 40.195312 Z M 4.308594 10.613281 C 3.507812 7 3.75 4.425781 4.996094 3.636719 C 5.304688 3.441406 5.679688 3.347656 6.121094 3.347656 C 7.457031 3.347656 9.371094 4.246094 11.625 5.992188 L 6.796875 6.480469 Z M 9.269531 23.019531 C 9.011719 22.535156 8.753906 22.054688 8.511719 21.578125 C 8.390625 21.347656 8.277344 21.117188 8.164062 20.886719 C 7.972656 20.507812 7.792969 20.132812 7.613281 19.757812 C 7.515625 19.550781 7.414062 19.339844 7.320312 19.132812 C 7.082031 18.617188 6.855469 18.105469 6.636719 17.59375 C 6.550781 17.390625 6.46875 17.1875 6.386719 16.988281 C 6.207031 16.550781 6.03125 16.121094 5.871094 15.691406 C 5.824219 15.570312 5.773438 15.445312 5.730469 15.328125 C 5.535156 14.800781 5.355469 14.28125 5.191406 13.773438 C 5.140625 13.621094 5.089844 13.472656 5.042969 13.324219 C 5.003906 13.195312 4.972656 13.070312 4.933594 12.941406 L 7.835938 8.121094 L 13.449219 7.550781 C 15.835938 9.714844 18.316406 12.535156 20.695312 15.78125 L 12.8125 15.972656 Z M 11.902344 27.503906 C 11.339844 26.617188 10.8125 25.730469 10.296875 24.84375 L 13.894531 17.683594 L 21.914062 17.488281 C 21.917969 17.492188 21.921875 17.496094 21.925781 17.503906 C 21.882812 17.558594 21.84375 17.617188 21.804688 17.671875 C 21.476562 18.140625 21.144531 18.609375 20.824219 19.085938 C 20.707031 19.261719 20.59375 19.433594 20.476562 19.605469 C 20.285156 19.898438 20.09375 20.1875 19.910156 20.476562 C 19.601562 20.953125 19.300781 21.433594 19.007812 21.90625 C 18.960938 21.984375 18.914062 22.058594 18.867188 22.136719 C 17.90625 23.710938 17.039062 25.269531 16.269531 26.796875 C 16.179688 26.976562 16.089844 27.152344 16 27.332031 C 15.886719 27.566406 15.769531 27.800781 15.660156 28.03125 C 15.441406 28.492188 15.234375 28.949219 15.035156 29.402344 C 15.015625 29.453125 14.988281 29.507812 14.964844 29.558594 C 14.738281 30.078125 14.523438 30.59375 14.324219 31.101562 C 13.492188 29.9375 12.683594 28.730469 11.902344 27.503906 Z M 22.636719 39.21875 C 22.421875 39.371094 22.207031 39.523438 22 39.667969 C 21.800781 39.804688 21.601562 39.9375 21.40625 40.066406 C 18.589844 41.886719 16.359375 42.484375 15.226562 41.671875 C 13.832031 40.667969 13.933594 37.421875 15.507812 32.925781 C 15.664062 32.492188 15.824219 32.046875 16.003906 31.59375 C 16.0625 31.4375 16.132812 31.277344 16.199219 31.117188 C 16.371094 30.695312 16.546875 30.269531 16.742188 29.835938 C 16.824219 29.65625 16.914062 29.46875 16.996094 29.285156 C 17.191406 28.859375 17.390625 28.433594 17.601562 28.003906 C 17.695312 27.8125 17.800781 27.613281 17.898438 27.414062 C 18.121094 26.984375 18.34375 26.550781 18.578125 26.113281 C 18.6875 25.910156 18.804688 25.703125 18.917969 25.496094 C 19.160156 25.0625 19.402344 24.625 19.660156 24.1875 C 19.792969 23.953125 19.941406 23.714844 20.082031 23.484375 C 20.332031 23.066406 20.578125 22.652344 20.84375 22.234375 C 21.039062 21.921875 21.25 21.601562 21.460938 21.285156 C 21.679688 20.945312 21.894531 20.601562 22.125 20.261719 C 22.574219 19.597656 23.035156 18.925781 23.523438 18.253906 C 27.328125 12.960938 31.546875 8.460938 35.398438 5.582031 C 38.019531 3.628906 40.289062 2.582031 41.816406 2.582031 C 42.324219 2.582031 42.753906 2.699219 43.085938 2.9375 C 45.75 4.851562 42.996094 14.941406 34.789062 26.355469 C 33.273438 28.464844 31.738281 30.382812 30.226562 32.097656 C 30.226562 32.097656 30.222656 32.097656 30.222656 32.101562 C 30.050781 32.292969 29.882812 32.476562 29.714844 32.664062 C 29.4375 32.972656 29.160156 33.273438 28.886719 33.566406 C 28.683594 33.785156 28.480469 33.992188 28.277344 34.203125 C 28.011719 34.480469 27.75 34.75 27.488281 35.007812 C 27.308594 35.1875 27.132812 35.359375 26.957031 35.53125 C 26.597656 35.882812 26.238281 36.21875 25.886719 36.539062 C 25.8125 36.605469 25.738281 36.683594 25.660156 36.75 C 25.222656 37.144531 24.796875 37.511719 24.375 37.863281 C 24.25 37.96875 24.128906 38.0625 24.007812 38.160156 C 23.714844 38.398438 23.429688 38.621094 23.148438 38.835938 C 22.976562 38.96875 22.804688 39.09375 22.636719 39.21875 Z M 30.53125 43.941406 C 29.183594 44.792969 26.417969 43.664062 23.179688 40.980469 C 24.191406 40.269531 25.234375 39.4375 26.285156 38.511719 C 26.574219 38.257812 26.867188 37.996094 27.160156 37.726562 C 27.226562 37.664062 27.289062 37.605469 27.355469 37.546875 C 28.398438 36.574219 29.457031 35.515625 30.519531 34.363281 C 30.769531 35.171875 30.96875 35.941406 31.144531 36.691406 C 30.101562 37.039062 29.03125 37.605469 27.929688 38.40625 C 27.566406 38.671875 27.46875 39.171875 27.703125 39.554688 L 29.558594 42.613281 C 29.695312 42.84375 29.933594 42.996094 30.203125 43.027344 C 30.234375 43.03125 30.269531 43.03125 30.296875 43.03125 C 30.535156 43.03125 30.757812 42.933594 30.921875 42.765625 C 31.121094 42.558594 31.324219 42.375 31.527344 42.203125 C 31.375 42.933594 31.082031 43.59375 30.53125 43.941406 Z M 36.175781 39.085938 C 36.0625 39.078125 35.953125 39.070312 35.84375 39.0625 C 35.78125 39.058594 35.714844 39.054688 35.652344 39.054688 C 34.601562 39.015625 33.40625 39.171875 32.179688 39.742188 C 32.148438 39.753906 32.128906 39.777344 32.101562 39.792969 C 31.558594 40.050781 31.019531 40.382812 30.492188 40.808594 L 29.609375 39.355469 C 30.597656 38.722656 31.535156 38.320312 32.425781 38.136719 C 32.613281 38.097656 32.796875 38.070312 32.976562 38.050781 C 33.007812 38.046875 33.039062 38.046875 33.070312 38.042969 C 33.25 38.03125 33.425781 38.023438 33.597656 38.027344 C 33.617188 38.027344 33.632812 38.03125 33.648438 38.03125 C 33.832031 38.039062 34.007812 38.054688 34.179688 38.082031 C 34.183594 38.082031 34.191406 38.082031 34.199219 38.085938 C 34.375 38.113281 34.546875 38.152344 34.714844 38.199219 C 34.882812 38.25 35.042969 38.304688 35.195312 38.371094 C 35.210938 38.375 35.222656 38.382812 35.238281 38.386719 C 35.375 38.445312 35.503906 38.507812 35.628906 38.578125 C 35.726562 38.628906 35.816406 38.683594 35.90625 38.742188 C 35.945312 38.765625 35.988281 38.789062 36.027344 38.816406 C 36.164062 38.90625 36.296875 39.003906 36.417969 39.105469 C 36.339844 39.097656 36.253906 39.09375 36.175781 39.085938 Z M 36.175781 39.085938 " fill-opacity="1" fill-rule="nonzero"/></g><g clip-path="url(#b34b2544fe)"><path fill="#000000" d="M 51.839844 27.617188 C 50.898438 27.617188 49.984375 27.488281 49.105469 27.238281 C 48.226562 26.984375 47.523438 26.648438 46.992188 26.238281 L 47.929688 24.167969 C 48.4375 24.542969 49.042969 24.84375 49.75 25.070312 C 50.449219 25.292969 51.152344 25.40625 51.851562 25.40625 C 52.636719 25.40625 53.210938 25.292969 53.585938 25.058594 C 53.964844 24.824219 54.152344 24.515625 54.152344 24.132812 C 54.152344 23.851562 54.042969 23.613281 53.816406 23.425781 C 53.597656 23.242188 53.3125 23.09375 52.964844 22.980469 C 52.617188 22.863281 52.152344 22.738281 51.566406 22.601562 C 50.660156 22.390625 49.917969 22.175781 49.34375 21.960938 C 48.765625 21.742188 48.265625 21.394531 47.851562 20.917969 C 47.4375 20.441406 47.230469 19.808594 47.230469 19.015625 C 47.230469 18.328125 47.417969 17.699219 47.789062 17.140625 C 48.167969 16.578125 48.730469 16.132812 49.480469 15.804688 C 50.238281 15.476562 51.15625 15.308594 52.246094 15.308594 C 53.003906 15.308594 53.746094 15.398438 54.46875 15.582031 C 55.195312 15.765625 55.832031 16.027344 56.375 16.367188 L 55.523438 18.457031 C 54.429688 17.832031 53.328125 17.519531 52.230469 17.519531 C 51.460938 17.519531 50.890625 17.644531 50.515625 17.898438 C 50.148438 18.144531 49.964844 18.472656 49.964844 18.882812 C 49.964844 19.289062 50.175781 19.59375 50.601562 19.792969 C 51.03125 19.988281 51.679688 20.183594 52.550781 20.378906 C 53.457031 20.59375 54.195312 20.808594 54.777344 21.023438 C 55.351562 21.238281 55.847656 21.578125 56.265625 22.042969 C 56.679688 22.503906 56.886719 23.132812 56.886719 23.929688 C 56.886719 24.613281 56.695312 25.230469 56.3125 25.792969 C 55.9375 26.351562 55.367188 26.796875 54.609375 27.125 C 53.847656 27.453125 52.925781 27.617188 51.839844 27.617188 Z M 51.839844 27.617188 " fill-opacity="1" fill-rule="nonzero"/></g></svg>