<svg xmlns="http://www.w3.org/2000/svg" xmlns:xlink="http://www.w3.org/1999/xlink" width="400" zoomAndPan="magnify" viewBox="0 0 300 112.499997" height="150" preserveAspectRatio="xMidYMid meet" version="1.0"><defs><g/><clipPath id="0bcdaf0819"><path d="M 1 14.085938 L 84 14.085938 L 84 97.714844 L 1 97.714844 Z M 1 14.085938 " clip-rule="nonzero"/></clipPath></defs><g clip-path="url(#0bcdaf0819)"><path fill="#ffffff" d="M 71.53125 87.210938 C 70.992188 86.183594 70.144531 84.964844 69.003906 83.820312 C 68.988281 83.804688 68.972656 83.785156 68.957031 83.769531 C 68.875 83.6875 68.789062 83.609375 68.707031 83.53125 C 67.332031 82.195312 65.476562 80.898438 63.089844 80.292969 C 61.863281 79.980469 60.601562 79.902344 59.308594 80 C 59.238281 80.007812 59.171875 80.003906 59.101562 80.007812 C 58.632812 77.980469 57.992188 75.816406 57.234375 73.582031 C 60.050781 70.34375 62.785156 66.90625 65.324219 63.378906 C 78.785156 44.664062 88.503906 21.472656 80.003906 15.359375 C 76.183594 12.613281 69.925781 14.324219 61.910156 20.3125 C 55.050781 25.433594 47.632812 33.195312 40.816406 42.308594 C 40.8125 42.300781 40.808594 42.292969 40.804688 42.289062 C 40.339844 41.628906 39.867188 40.972656 39.390625 40.320312 C 34.574219 33.707031 29.519531 27.980469 24.667969 23.667969 L 24.140625 23.199219 L 24.078125 23.207031 C 16.84375 16.929688 10.023438 13.765625 5.613281 16.554688 C 1.640625 19.074219 0.894531 25.515625 3.453125 35.1875 C 3.535156 35.492188 3.640625 35.8125 3.726562 36.117188 L 3.714844 36.144531 L 3.910156 36.824219 C 4.023438 37.207031 4.160156 37.605469 4.28125 37.996094 C 4.382812 38.332031 4.484375 38.660156 4.59375 39 C 4.914062 39.980469 5.257812 40.972656 5.628906 41.984375 C 5.714844 42.214844 5.804688 42.449219 5.894531 42.679688 C 6.234375 43.582031 6.597656 44.488281 6.976562 45.410156 C 7.160156 45.851562 7.351562 46.296875 7.542969 46.742188 C 7.835938 47.425781 8.140625 48.117188 8.457031 48.808594 C 8.675781 49.285156 8.886719 49.761719 9.113281 50.242188 C 9.484375 51.035156 9.875 51.832031 10.273438 52.632812 C 10.5625 53.21875 10.859375 53.804688 11.164062 54.394531 C 11.601562 55.242188 12.046875 56.085938 12.507812 56.941406 C 12.777344 57.4375 13.054688 57.933594 13.335938 58.429688 C 13.542969 58.804688 13.742188 59.175781 13.953125 59.546875 L 15.445312 62.160156 L 15.46875 62.117188 C 16.113281 63.199219 16.765625 64.277344 17.449219 65.355469 C 19.328125 68.324219 21.320312 71.203125 23.355469 73.953125 C 20.515625 82.550781 20.324219 89.59375 24.464844 92.570312 C 25.691406 93.453125 27.128906 93.863281 28.738281 93.863281 C 31.507812 93.863281 34.785156 92.617188 38.316406 90.5 C 43.988281 95.367188 48.96875 97.914062 52.796875 97.914062 C 54.195312 97.910156 55.445312 97.574219 56.515625 96.894531 C 58.753906 95.476562 59.96875 92.800781 60.128906 88.933594 C 60.164062 88.917969 60.203125 88.898438 60.242188 88.886719 C 60.324219 88.855469 60.40625 88.835938 60.488281 88.808594 C 60.742188 88.730469 60.992188 88.660156 61.242188 88.601562 C 61.414062 88.558594 61.582031 88.523438 61.75 88.492188 C 61.875 88.46875 61.996094 88.453125 62.117188 88.433594 C 66.089844 87.847656 69.390625 89.617188 69.464844 89.65625 C 69.542969 89.699219 69.625 89.714844 69.703125 89.746094 C 70.105469 89.894531 70.542969 89.890625 70.929688 89.714844 C 70.949219 89.703125 70.96875 89.683594 70.992188 89.671875 C 71.121094 89.605469 71.246094 89.53125 71.355469 89.429688 C 71.867188 88.949219 72.011719 88.191406 71.710938 87.558594 C 71.699219 87.527344 71.636719 87.402344 71.53125 87.210938 Z M 6.0625 32.246094 C 4.578125 25.53125 5.023438 20.746094 7.339844 19.28125 C 7.910156 18.917969 8.613281 18.738281 9.429688 18.738281 C 11.914062 18.738281 15.476562 20.410156 19.660156 23.65625 L 10.6875 24.566406 Z M 15.285156 55.296875 C 14.800781 54.398438 14.328125 53.507812 13.871094 52.617188 C 13.648438 52.1875 13.441406 51.761719 13.226562 51.332031 C 12.875 50.628906 12.535156 49.929688 12.207031 49.234375 C 12.023438 48.847656 11.832031 48.460938 11.65625 48.078125 C 11.214844 47.113281 10.796875 46.160156 10.390625 45.21875 C 10.230469 44.839844 10.078125 44.464844 9.921875 44.089844 C 9.585938 43.277344 9.265625 42.472656 8.964844 41.679688 C 8.878906 41.453125 8.785156 41.226562 8.703125 41.003906 C 8.339844 40.023438 8.011719 39.0625 7.699219 38.109375 C 7.605469 37.832031 7.519531 37.558594 7.429688 37.28125 C 7.355469 37.039062 7.292969 36.808594 7.222656 36.570312 L 12.617188 27.609375 L 23.050781 26.554688 C 27.484375 30.578125 32.09375 35.8125 36.519531 41.84375 L 21.863281 42.203125 Z M 20.171875 63.628906 C 19.128906 61.980469 18.144531 60.332031 17.191406 58.683594 L 23.875 45.378906 L 38.777344 45.015625 C 38.78125 45.023438 38.789062 45.035156 38.796875 45.042969 C 38.71875 45.148438 38.652344 45.253906 38.578125 45.359375 C 37.960938 46.230469 37.351562 47.105469 36.753906 47.988281 C 36.535156 48.3125 36.324219 48.632812 36.109375 48.957031 C 35.753906 49.492188 35.398438 50.03125 35.050781 50.574219 C 34.480469 51.460938 33.921875 52.34375 33.378906 53.230469 C 33.292969 53.371094 33.203125 53.515625 33.117188 53.65625 C 31.335938 56.578125 29.71875 59.480469 28.289062 62.3125 C 28.121094 62.648438 27.957031 62.980469 27.792969 63.3125 C 27.578125 63.746094 27.363281 64.183594 27.160156 64.613281 C 26.75 65.46875 26.367188 66.316406 25.996094 67.15625 C 25.953125 67.253906 25.910156 67.351562 25.871094 67.445312 C 25.445312 68.414062 25.046875 69.371094 24.675781 70.3125 C 23.128906 68.152344 21.621094 65.914062 20.171875 63.628906 Z M 40.121094 85.394531 C 39.71875 85.6875 39.328125 85.964844 38.9375 86.234375 C 38.566406 86.488281 38.199219 86.738281 37.832031 86.976562 C 32.601562 90.359375 28.453125 91.472656 26.351562 89.957031 C 23.761719 88.09375 23.953125 82.054688 26.875 73.710938 C 27.160156 72.894531 27.464844 72.070312 27.792969 71.230469 C 27.910156 70.941406 28.039062 70.640625 28.160156 70.34375 C 28.480469 69.558594 28.808594 68.769531 29.167969 67.964844 C 29.316406 67.628906 29.484375 67.277344 29.640625 66.9375 C 30 66.152344 30.371094 65.359375 30.765625 64.558594 C 30.941406 64.199219 31.136719 63.832031 31.320312 63.464844 C 31.726562 62.664062 32.140625 61.859375 32.578125 61.046875 C 32.78125 60.667969 33 60.28125 33.214844 59.902344 C 33.660156 59.089844 34.113281 58.28125 34.589844 57.464844 C 34.839844 57.03125 35.113281 56.59375 35.378906 56.15625 C 35.839844 55.386719 36.300781 54.613281 36.785156 53.839844 C 37.152344 53.257812 37.546875 52.664062 37.933594 52.070312 C 38.34375 51.441406 38.746094 50.804688 39.171875 50.175781 C 40 48.9375 40.863281 47.691406 41.765625 46.4375 C 48.839844 36.605469 56.679688 28.242188 63.839844 22.894531 C 68.707031 19.261719 72.925781 17.320312 75.765625 17.320312 C 76.710938 17.320312 77.503906 17.535156 78.121094 17.976562 C 83.070312 21.539062 77.957031 40.289062 62.707031 61.496094 C 59.882812 65.417969 57.03125 68.976562 54.226562 72.164062 C 54.226562 72.167969 54.222656 72.171875 54.21875 72.171875 C 53.902344 72.53125 53.589844 72.871094 53.273438 73.21875 C 52.757812 73.789062 52.246094 74.355469 51.738281 74.894531 C 51.359375 75.300781 50.984375 75.691406 50.605469 76.082031 C 50.113281 76.59375 49.621094 77.09375 49.132812 77.578125 C 48.804688 77.902344 48.476562 78.230469 48.152344 78.546875 C 47.480469 79.195312 46.820312 79.820312 46.164062 80.421875 C 46.023438 80.546875 45.882812 80.6875 45.742188 80.8125 C 44.929688 81.542969 44.132812 82.230469 43.351562 82.882812 C 43.121094 83.074219 42.894531 83.25 42.664062 83.433594 C 42.125 83.871094 41.59375 84.292969 41.070312 84.691406 C 40.75 84.933594 40.433594 85.167969 40.121094 85.394531 Z M 54.792969 94.171875 C 52.285156 95.757812 47.144531 93.660156 41.128906 88.675781 C 43.011719 87.351562 44.945312 85.804688 46.898438 84.085938 C 47.441406 83.613281 47.984375 83.125 48.527344 82.625 C 48.648438 82.511719 48.769531 82.402344 48.890625 82.289062 C 50.828125 80.488281 52.796875 78.515625 54.769531 76.375 C 55.238281 77.878906 55.609375 79.3125 55.929688 80.703125 C 53.992188 81.351562 52 82.398438 49.960938 83.886719 C 49.285156 84.382812 49.097656 85.3125 49.53125 86.023438 L 52.980469 91.707031 C 53.242188 92.136719 53.683594 92.417969 54.179688 92.472656 C 54.242188 92.480469 54.300781 92.484375 54.359375 92.484375 C 54.796875 92.484375 55.210938 92.308594 55.519531 91.988281 C 55.890625 91.605469 56.265625 91.261719 56.640625 90.949219 C 56.355469 92.300781 55.8125 93.527344 54.792969 94.171875 Z M 65.277344 85.15625 C 65.074219 85.136719 64.871094 85.121094 64.660156 85.105469 C 64.542969 85.101562 64.425781 85.09375 64.308594 85.09375 C 62.355469 85.023438 60.132812 85.316406 57.855469 86.371094 C 57.800781 86.394531 57.757812 86.4375 57.707031 86.46875 C 56.699219 86.949219 55.695312 87.5625 54.71875 88.355469 L 53.082031 85.65625 C 54.910156 84.476562 56.65625 83.730469 58.308594 83.390625 C 58.660156 83.316406 59.003906 83.261719 59.335938 83.230469 C 59.394531 83.222656 59.453125 83.222656 59.511719 83.21875 C 59.847656 83.191406 60.171875 83.179688 60.488281 83.1875 C 60.519531 83.1875 60.554688 83.191406 60.589844 83.191406 C 60.925781 83.207031 61.253906 83.234375 61.570312 83.285156 C 61.582031 83.285156 61.589844 83.289062 61.601562 83.292969 C 61.933594 83.34375 62.253906 83.417969 62.5625 83.503906 C 62.5625 83.503906 62.566406 83.507812 62.566406 83.507812 C 62.875 83.597656 63.171875 83.703125 63.460938 83.820312 C 63.484375 83.832031 63.511719 83.84375 63.539062 83.855469 C 63.789062 83.964844 64.035156 84.078125 64.269531 84.207031 C 64.445312 84.304688 64.609375 84.40625 64.777344 84.511719 C 64.851562 84.558594 64.933594 84.601562 65.003906 84.648438 C 65.257812 84.824219 65.503906 85.003906 65.734375 85.191406 C 65.585938 85.175781 65.429688 85.167969 65.277344 85.15625 Z M 65.277344 85.15625 " fill-opacity="1" fill-rule="nonzero"/></g><g fill="#ffffff" fill-opacity="1"><g transform="translate(89.506501, 61.076627)"><g><path d="M 9.78125 0.3125 C 8.082031 0.3125 6.441406 0.0703125 4.859375 -0.40625 C 3.273438 -0.894531 2.019531 -1.535156 1.09375 -2.328125 L 2.515625 -5.5 C 3.421875 -4.789062 4.523438 -4.207031 5.828125 -3.75 C 7.140625 -3.300781 8.457031 -3.078125 9.78125 -3.078125 C 11.414062 -3.078125 12.640625 -3.335938 13.453125 -3.859375 C 14.265625 -4.390625 14.671875 -5.085938 14.671875 -5.953125 C 14.671875 -6.578125 14.441406 -7.09375 13.984375 -7.5 C 13.535156 -7.914062 12.960938 -8.238281 12.265625 -8.46875 C 11.578125 -8.695312 10.632812 -8.957031 9.4375 -9.25 C 7.757812 -9.644531 6.398438 -10.039062 5.359375 -10.4375 C 4.328125 -10.84375 3.4375 -11.46875 2.6875 -12.3125 C 1.945312 -13.164062 1.578125 -14.316406 1.578125 -15.765625 C 1.578125 -16.984375 1.90625 -18.085938 2.5625 -19.078125 C 3.226562 -20.078125 4.222656 -20.867188 5.546875 -21.453125 C 6.878906 -22.046875 8.515625 -22.34375 10.453125 -22.34375 C 11.796875 -22.34375 13.113281 -22.171875 14.40625 -21.828125 C 15.707031 -21.492188 16.832031 -21.015625 17.78125 -20.390625 L 16.484375 -17.21875 C 15.523438 -17.78125 14.519531 -18.207031 13.46875 -18.5 C 12.414062 -18.789062 11.398438 -18.9375 10.421875 -18.9375 C 8.804688 -18.9375 7.601562 -18.664062 6.8125 -18.125 C 6.03125 -17.582031 5.640625 -16.859375 5.640625 -15.953125 C 5.640625 -15.328125 5.863281 -14.8125 6.3125 -14.40625 C 6.757812 -14.007812 7.328125 -13.695312 8.015625 -13.46875 C 8.710938 -13.238281 9.660156 -12.976562 10.859375 -12.6875 C 12.492188 -12.300781 13.832031 -11.90625 14.875 -11.5 C 15.925781 -11.09375 16.820312 -10.46875 17.5625 -9.625 C 18.3125 -8.789062 18.6875 -7.660156 18.6875 -6.234375 C 18.6875 -5.015625 18.351562 -3.910156 17.6875 -2.921875 C 17.03125 -1.941406 16.03125 -1.15625 14.6875 -0.5625 C 13.351562 0.0195312 11.71875 0.3125 9.78125 0.3125 Z M 9.78125 0.3125 "/></g></g></g><g fill="#ffffff" fill-opacity="1"><g transform="translate(109.291028, 61.076627)"><g><path d="M 12.4375 0.3125 C 9.394531 0.3125 7.019531 -0.539062 5.3125 -2.25 C 3.613281 -3.957031 2.765625 -6.40625 2.765625 -9.59375 L 2.765625 -22.03125 L 6.859375 -22.03125 L 6.859375 -9.75 C 6.859375 -5.425781 8.726562 -3.265625 12.46875 -3.265625 C 16.175781 -3.265625 18.03125 -5.425781 18.03125 -9.75 L 18.03125 -22.03125 L 22.0625 -22.03125 L 22.0625 -9.59375 C 22.0625 -6.40625 21.21875 -3.957031 19.53125 -2.25 C 17.84375 -0.539062 15.476562 0.3125 12.4375 0.3125 Z M 12.4375 0.3125 "/></g></g></g><g fill="#ffffff" fill-opacity="1"><g transform="translate(134.108192, 61.076627)"><g><path d="M 17.375 0 L 12.875 -6.453125 C 12.6875 -6.429688 12.398438 -6.421875 12.015625 -6.421875 L 7.046875 -6.421875 L 7.046875 0 L 2.953125 0 L 2.953125 -22.03125 L 12.015625 -22.03125 C 13.929688 -22.03125 15.597656 -21.710938 17.015625 -21.078125 C 18.429688 -20.453125 19.515625 -19.550781 20.265625 -18.375 C 21.023438 -17.195312 21.40625 -15.800781 21.40625 -14.1875 C 21.40625 -12.53125 21 -11.101562 20.1875 -9.90625 C 19.375 -8.71875 18.210938 -7.828125 16.703125 -7.234375 L 21.78125 0 Z M 17.28125 -14.1875 C 17.28125 -15.59375 16.816406 -16.671875 15.890625 -17.421875 C 14.960938 -18.179688 13.609375 -18.5625 11.828125 -18.5625 L 7.046875 -18.5625 L 7.046875 -9.78125 L 11.828125 -9.78125 C 13.609375 -9.78125 14.960938 -10.160156 15.890625 -10.921875 C 16.816406 -11.691406 17.28125 -12.78125 17.28125 -14.1875 Z M 17.28125 -14.1875 "/></g></g></g><g fill="#ffffff" fill-opacity="1"><g transform="translate(157.101023, 61.076627)"><g><path d="M 7.046875 -18.59375 L 7.046875 -11.890625 L 17.6875 -11.890625 L 17.6875 -8.4375 L 7.046875 -8.4375 L 7.046875 0 L 2.953125 0 L 2.953125 -22.03125 L 19.03125 -22.03125 L 19.03125 -18.59375 Z M 7.046875 -18.59375 "/></g></g></g><g fill="#ffffff" fill-opacity="1"><g transform="translate(177.137186, 61.076627)"><g><path d="M 18.5625 -11.453125 C 19.78125 -11.054688 20.742188 -10.390625 21.453125 -9.453125 C 22.171875 -8.523438 22.53125 -7.367188 22.53125 -5.984375 C 22.53125 -4.066406 21.796875 -2.585938 20.328125 -1.546875 C 18.859375 -0.515625 16.71875 0 13.90625 0 L 2.953125 0 L 2.953125 -22.03125 L 13.28125 -22.03125 C 15.882812 -22.03125 17.890625 -21.519531 19.296875 -20.5 C 20.703125 -19.476562 21.40625 -18.078125 21.40625 -16.296875 C 21.40625 -15.210938 21.148438 -14.25 20.640625 -13.40625 C 20.140625 -12.5625 19.445312 -11.910156 18.5625 -11.453125 Z M 7.046875 -18.8125 L 7.046875 -12.75 L 12.84375 -12.75 C 14.269531 -12.75 15.363281 -13.003906 16.125 -13.515625 C 16.894531 -14.023438 17.28125 -14.773438 17.28125 -15.765625 C 17.28125 -16.773438 16.894531 -17.535156 16.125 -18.046875 C 15.363281 -18.554688 14.269531 -18.8125 12.84375 -18.8125 Z M 13.65625 -3.203125 C 16.820312 -3.203125 18.40625 -4.265625 18.40625 -6.390625 C 18.40625 -8.503906 16.820312 -9.5625 13.65625 -9.5625 L 7.046875 -9.5625 L 7.046875 -3.203125 Z M 13.65625 -3.203125 "/></g></g></g><g fill="#ffffff" fill-opacity="1"><g transform="translate(201.073635, 61.076627)"><g><path d="M 13.25 0.3125 C 11 0.3125 8.972656 -0.171875 7.171875 -1.140625 C 5.367188 -2.117188 3.953125 -3.472656 2.921875 -5.203125 C 1.898438 -6.929688 1.390625 -8.867188 1.390625 -11.015625 C 1.390625 -13.148438 1.898438 -15.082031 2.921875 -16.8125 C 3.953125 -18.550781 5.367188 -19.90625 7.171875 -20.875 C 8.972656 -21.851562 11 -22.34375 13.25 -22.34375 C 15.488281 -22.34375 17.507812 -21.851562 19.3125 -20.875 C 21.125 -19.90625 22.539062 -18.554688 23.5625 -16.828125 C 24.59375 -15.109375 25.109375 -13.171875 25.109375 -11.015625 C 25.109375 -8.847656 24.59375 -6.90625 23.5625 -5.1875 C 22.539062 -3.46875 21.125 -2.117188 19.3125 -1.140625 C 17.507812 -0.171875 15.488281 0.3125 13.25 0.3125 Z M 13.25 -3.265625 C 14.71875 -3.265625 16.035156 -3.59375 17.203125 -4.25 C 18.378906 -4.914062 19.300781 -5.84375 19.96875 -7.03125 C 20.644531 -8.21875 20.984375 -9.546875 20.984375 -11.015625 C 20.984375 -12.484375 20.644531 -13.804688 19.96875 -14.984375 C 19.300781 -16.171875 18.378906 -17.09375 17.203125 -17.75 C 16.035156 -18.414062 14.71875 -18.75 13.25 -18.75 C 11.78125 -18.75 10.457031 -18.414062 9.28125 -17.75 C 8.101562 -17.09375 7.175781 -16.171875 6.5 -14.984375 C 5.832031 -13.804688 5.5 -12.484375 5.5 -11.015625 C 5.5 -9.546875 5.832031 -8.21875 6.5 -7.03125 C 7.175781 -5.84375 8.101562 -4.914062 9.28125 -4.25 C 10.457031 -3.59375 11.78125 -3.265625 13.25 -3.265625 Z M 13.25 -3.265625 "/></g></g></g><g fill="#ffffff" fill-opacity="1"><g transform="translate(227.243201, 61.076627)"><g><path d="M 17.25 -5.09375 L 6.234375 -5.09375 L 4.0625 0 L -0.15625 0 L 9.75 -22.03125 L 13.78125 -22.03125 L 23.734375 0 L 19.453125 0 Z M 15.890625 -8.3125 L 11.734375 -17.9375 L 7.609375 -8.3125 Z M 15.890625 -8.3125 "/></g></g></g><g fill="#ffffff" fill-opacity="1"><g transform="translate(250.802208, 61.076627)"><g><path d="M 17.375 0 L 12.875 -6.453125 C 12.6875 -6.429688 12.398438 -6.421875 12.015625 -6.421875 L 7.046875 -6.421875 L 7.046875 0 L 2.953125 0 L 2.953125 -22.03125 L 12.015625 -22.03125 C 13.929688 -22.03125 15.597656 -21.710938 17.015625 -21.078125 C 18.429688 -20.453125 19.515625 -19.550781 20.265625 -18.375 C 21.023438 -17.195312 21.40625 -15.800781 21.40625 -14.1875 C 21.40625 -12.53125 21 -11.101562 20.1875 -9.90625 C 19.375 -8.71875 18.210938 -7.828125 16.703125 -7.234375 L 21.78125 0 Z M 17.28125 -14.1875 C 17.28125 -15.59375 16.816406 -16.671875 15.890625 -17.421875 C 14.960938 -18.179688 13.609375 -18.5625 11.828125 -18.5625 L 7.046875 -18.5625 L 7.046875 -9.78125 L 11.828125 -9.78125 C 13.609375 -9.78125 14.960938 -10.160156 15.890625 -10.921875 C 16.816406 -11.691406 17.28125 -12.78125 17.28125 -14.1875 Z M 17.28125 -14.1875 "/></g></g></g><g fill="#ffffff" fill-opacity="1"><g transform="translate(273.79504, 61.076627)"><g><path d="M 2.953125 -22.03125 L 12.59375 -22.03125 C 14.9375 -22.03125 17.019531 -21.570312 18.84375 -20.65625 C 20.675781 -19.75 22.09375 -18.457031 23.09375 -16.78125 C 24.101562 -15.113281 24.609375 -13.191406 24.609375 -11.015625 C 24.609375 -8.828125 24.101562 -6.898438 23.09375 -5.234375 C 22.09375 -3.566406 20.675781 -2.273438 18.84375 -1.359375 C 17.019531 -0.453125 14.9375 0 12.59375 0 L 2.953125 0 Z M 12.40625 -3.46875 C 14.019531 -3.46875 15.4375 -3.773438 16.65625 -4.390625 C 17.882812 -5.003906 18.828125 -5.882812 19.484375 -7.03125 C 20.148438 -8.175781 20.484375 -9.503906 20.484375 -11.015625 C 20.484375 -12.523438 20.148438 -13.847656 19.484375 -14.984375 C 18.828125 -16.128906 17.882812 -17.007812 16.65625 -17.625 C 15.4375 -18.25 14.019531 -18.5625 12.40625 -18.5625 L 7.046875 -18.5625 L 7.046875 -3.46875 Z M 12.40625 -3.46875 "/></g></g></g><g fill="#2596be" fill-opacity="1"><g transform="translate(241.548626, 85.396014)"><g><path d="M 5.671875 0.21875 C 4.671875 0.21875 3.703125 0.0820312 2.765625 -0.1875 C 1.828125 -0.457031 1.078125 -0.8125 0.515625 -1.25 L 1.5 -3.46875 C 2.050781 -3.0625 2.703125 -2.738281 3.453125 -2.5 C 4.203125 -2.257812 4.953125 -2.140625 5.703125 -2.140625 C 6.535156 -2.140625 7.148438 -2.265625 7.546875 -2.515625 C 7.941406 -2.765625 8.140625 -3.09375 8.140625 -3.5 C 8.140625 -3.800781 8.019531 -4.050781 7.78125 -4.25 C 7.550781 -4.445312 7.25 -4.609375 6.875 -4.734375 C 6.507812 -4.859375 6.015625 -4.992188 5.390625 -5.140625 C 4.421875 -5.367188 3.628906 -5.597656 3.015625 -5.828125 C 2.398438 -6.054688 1.867188 -6.421875 1.421875 -6.921875 C 0.984375 -7.429688 0.765625 -8.113281 0.765625 -8.96875 C 0.765625 -9.695312 0.960938 -10.359375 1.359375 -10.953125 C 1.753906 -11.554688 2.351562 -12.035156 3.15625 -12.390625 C 3.96875 -12.742188 4.953125 -12.921875 6.109375 -12.921875 C 6.921875 -12.921875 7.710938 -12.820312 8.484375 -12.625 C 9.265625 -12.425781 9.941406 -12.148438 10.515625 -11.796875 L 9.609375 -9.5625 C 8.441406 -10.226562 7.269531 -10.5625 6.09375 -10.5625 C 5.269531 -10.5625 4.660156 -10.425781 4.265625 -10.15625 C 3.878906 -9.894531 3.6875 -9.546875 3.6875 -9.109375 C 3.6875 -8.671875 3.910156 -8.34375 4.359375 -8.125 C 4.816406 -7.914062 5.507812 -7.710938 6.4375 -7.515625 C 7.40625 -7.285156 8.195312 -7.050781 8.8125 -6.8125 C 9.425781 -6.582031 9.953125 -6.21875 10.390625 -5.71875 C 10.835938 -5.226562 11.0625 -4.5625 11.0625 -3.71875 C 11.0625 -2.988281 10.859375 -2.320312 10.453125 -1.71875 C 10.046875 -1.125 9.4375 -0.648438 8.625 -0.296875 C 7.820312 0.046875 6.835938 0.21875 5.671875 0.21875 Z M 5.671875 0.21875 "/></g></g></g><g fill="#2596be" fill-opacity="1"><g transform="translate(253.123178, 85.396014)"><g><path d="M 13.15625 -12.703125 L 13.15625 0 L 10.21875 0 L 10.21875 -5.203125 L 4.4375 -5.203125 L 4.4375 0 L 1.5 0 L 1.5 -12.703125 L 4.4375 -12.703125 L 4.4375 -7.6875 L 10.21875 -7.6875 L 10.21875 -12.703125 Z M 13.15625 -12.703125 "/></g></g></g><g fill="#2596be" fill-opacity="1"><g transform="translate(267.78187, 85.396014)"><g><path d="M 7.65625 0.21875 C 6.332031 0.21875 5.140625 -0.0625 4.078125 -0.625 C 3.023438 -1.195312 2.195312 -1.984375 1.59375 -2.984375 C 1 -3.984375 0.703125 -5.101562 0.703125 -6.34375 C 0.703125 -7.59375 1 -8.710938 1.59375 -9.703125 C 2.195312 -10.703125 3.023438 -11.488281 4.078125 -12.0625 C 5.140625 -12.632812 6.332031 -12.921875 7.65625 -12.921875 C 8.96875 -12.921875 10.148438 -12.632812 11.203125 -12.0625 C 12.265625 -11.488281 13.097656 -10.703125 13.703125 -9.703125 C 14.304688 -8.710938 14.609375 -7.59375 14.609375 -6.34375 C 14.609375 -5.101562 14.304688 -3.984375 13.703125 -2.984375 C 13.097656 -1.984375 12.265625 -1.195312 11.203125 -0.625 C 10.148438 -0.0625 8.96875 0.21875 7.65625 0.21875 Z M 7.65625 -2.28125 C 8.40625 -2.28125 9.082031 -2.453125 9.6875 -2.796875 C 10.289062 -3.140625 10.765625 -3.617188 11.109375 -4.234375 C 11.453125 -4.859375 11.625 -5.5625 11.625 -6.34375 C 11.625 -7.132812 11.453125 -7.835938 11.109375 -8.453125 C 10.765625 -9.066406 10.289062 -9.546875 9.6875 -9.890625 C 9.082031 -10.234375 8.40625 -10.40625 7.65625 -10.40625 C 6.90625 -10.40625 6.226562 -10.234375 5.625 -9.890625 C 5.019531 -9.546875 4.546875 -9.066406 4.203125 -8.453125 C 3.859375 -7.835938 3.6875 -7.132812 3.6875 -6.34375 C 3.6875 -5.5625 3.859375 -4.859375 4.203125 -4.234375 C 4.546875 -3.617188 5.019531 -3.140625 5.625 -2.796875 C 6.226562 -2.453125 6.90625 -2.28125 7.65625 -2.28125 Z M 7.65625 -2.28125 "/></g></g></g><g fill="#2596be" fill-opacity="1"><g transform="translate(283.093669, 85.396014)"><g><path d="M 7 -12.703125 C 8.125 -12.703125 9.097656 -12.515625 9.921875 -12.140625 C 10.753906 -11.765625 11.394531 -11.226562 11.84375 -10.53125 C 12.289062 -9.84375 12.515625 -9.03125 12.515625 -8.09375 C 12.515625 -7.15625 12.289062 -6.335938 11.84375 -5.640625 C 11.394531 -4.953125 10.753906 -4.421875 9.921875 -4.046875 C 9.097656 -3.679688 8.125 -3.5 7 -3.5 L 4.4375 -3.5 L 4.4375 0 L 1.5 0 L 1.5 -12.703125 Z M 6.84375 -5.890625 C 7.71875 -5.890625 8.382812 -6.078125 8.84375 -6.453125 C 9.3125 -6.835938 9.546875 -7.382812 9.546875 -8.09375 C 9.546875 -8.800781 9.3125 -9.34375 8.84375 -9.71875 C 8.382812 -10.101562 7.71875 -10.296875 6.84375 -10.296875 L 4.4375 -10.296875 L 4.4375 -5.890625 Z M 6.84375 -5.890625 "/></g></g></g></svg>